<?xml version="1.0" encoding="UTF-8" standalone="no"?>
<!-- Created with Inkscape (http://www.inkscape.org/) -->

<svg
   xmlns:ns0="http://www.iki.fi/pav/software/textext/"
   xmlns:dc="http://purl.org/dc/elements/1.1/"
   xmlns:cc="http://creativecommons.org/ns#"
   xmlns:rdf="http://www.w3.org/1999/02/22-rdf-syntax-ns#"
   xmlns:svg="http://www.w3.org/2000/svg"
   xmlns="http://www.w3.org/2000/svg"
   xmlns:xlink="http://www.w3.org/1999/xlink"
   xmlns:sodipodi="http://sodipodi.sourceforge.net/DTD/sodipodi-0.dtd"
   xmlns:inkscape="http://www.inkscape.org/namespaces/inkscape"
   width="964.7157"
   height="839.4295"
   id="svg2"
   version="1.1"
   inkscape:version="0.48.5 r10040"
   sodipodi:docname="wilhelmy_plate.svg">
  <sodipodi:namedview
     id="base"
     pagecolor="#ffffff"
     bordercolor="#666666"
     borderopacity="1.0"
     inkscape:pageopacity="0.0"
     inkscape:pageshadow="2"
     inkscape:zoom="0.49497475"
     inkscape:cx="563.10485"
     inkscape:cy="295.83921"
     inkscape:document-units="px"
     inkscape:current-layer="layer1"
     showgrid="false"
     inkscape:window-width="1440"
     inkscape:window-height="834"
     inkscape:window-x="0"
     inkscape:window-y="27"
     inkscape:window-maximized="1"
     showguides="true"
     inkscape:guide-bbox="true"
     fit-margin-top="0"
     fit-margin-left="0"
     fit-margin-right="0"
     fit-margin-bottom="0" />
  <defs
     id="defs4">
    <marker
       style="overflow:visible"
       id="Arrow2Mstart"
       refX="0"
       refY="0"
       orient="auto"
       inkscape:stockid="Arrow2Mstart">
      <path
         transform="scale(0.6,0.6)"
         d="M 8.7185878,4.0337352 -2.2072895,0.01601326 8.7185884,-4.0017078 c -1.7454984,2.3720609 -1.7354408,5.6174519 -6e-7,8.035443 z"
         style="fill-rule:evenodd;stroke-width:0.625;stroke-linejoin:round"
         id="path4344"
         inkscape:connector-curvature="0" />
    </marker>
    <marker
       inkscape:stockid="Arrow2Mend"
       orient="auto"
       refY="0"
       refX="0"
       id="Arrow2Mend"
       style="overflow:visible">
      <path
         id="path4347"
         style="fill-rule:evenodd;stroke-width:0.625;stroke-linejoin:round"
         d="M 8.7185878,4.0337352 -2.2072895,0.01601326 8.7185884,-4.0017078 c -1.7454984,2.3720609 -1.7354408,5.6174519 -6e-7,8.035443 z"
         transform="scale(-0.6,-0.6)"
         inkscape:connector-curvature="0" />
    </marker>
    <marker
       inkscape:stockid="Arrow2Send"
       orient="auto"
       refY="0"
       refX="0"
       id="Arrow2Send"
       style="overflow:visible">
      <path
         id="path4353"
         style="fill-rule:evenodd;stroke-width:0.625;stroke-linejoin:round"
         d="M 8.7185878,4.0337352 -2.2072895,0.01601326 8.7185884,-4.0017078 c -1.7454984,2.3720609 -1.7354408,5.6174519 -6e-7,8.035443 z"
         transform="matrix(-0.3,0,0,-0.3,0.69,0)"
         inkscape:connector-curvature="0" />
    </marker>
    <marker
       inkscape:stockid="Arrow2Lend"
       orient="auto"
       refY="0"
       refX="0"
       id="Arrow2Lend"
       style="overflow:visible">
      <path
         id="path4341"
         style="fill-rule:evenodd;stroke-width:0.625;stroke-linejoin:round"
         d="M 8.7185878,4.0337352 -2.2072895,0.01601326 8.7185884,-4.0017078 c -1.7454984,2.3720609 -1.7354408,5.6174519 -6e-7,8.035443 z"
         transform="matrix(-1.1,0,0,-1.1,-1.1,0)"
         inkscape:connector-curvature="0" />
    </marker>
    <inkscape:perspective
       id="perspective3773"
       inkscape:persp3d-origin="372.04724 : 350.78739 : 1"
       inkscape:vp_z="744.09448 : 526.18109 : 1"
       inkscape:vp_y="0 : 1000 : 0"
       inkscape:vp_x="0 : 526.18109 : 1"
       sodipodi:type="inkscape:persp3d" />
    <marker
       inkscape:stockid="Arrow2MendP"
       orient="auto"
       refY="0"
       refX="0"
       id="Arrow2MendP"
       style="overflow:visible">
      <path
         id="path5145"
         style="fill:#df0000;fill-rule:evenodd;stroke:#df0000;stroke-width:0.625;stroke-linejoin:round"
         d="M 8.7185878,4.0337352 -2.2072895,0.01601326 8.7185884,-4.0017078 c -1.7454984,2.3720609 -1.7354408,5.6174519 -6e-7,8.035443 z"
         transform="scale(-0.6,-0.6)"
         inkscape:connector-curvature="0" />
    </marker>
    <marker
       style="overflow:visible"
       id="Arrow2Mstartx"
       refX="0"
       refY="0"
       orient="auto"
       inkscape:stockid="Arrow2Mstartx">
      <path
         transform="scale(0.6,0.6)"
         d="M 8.7185878,4.0337352 -2.2072895,0.01601326 8.7185884,-4.0017078 c -1.7454984,2.3720609 -1.7354408,5.6174519 -6e-7,8.035443 z"
         style="fill:#686868;fill-rule:evenodd;stroke:#686868;stroke-width:0.625;stroke-linejoin:round"
         id="path5956"
         inkscape:connector-curvature="0" />
    </marker>
    <marker
       inkscape:stockid="Arrow2MendL"
       orient="auto"
       refY="0"
       refX="0"
       id="Arrow2MendL"
       style="overflow:visible">
      <path
         id="path5959"
         style="fill:#686868;fill-rule:evenodd;stroke:#686868;stroke-width:0.625;stroke-linejoin:round"
         d="M 8.7185878,4.0337352 -2.2072895,0.01601326 8.7185884,-4.0017078 c -1.7454984,2.3720609 -1.7354408,5.6174519 -6e-7,8.035443 z"
         transform="scale(-0.6,-0.6)"
         inkscape:connector-curvature="0" />
    </marker>
    <marker
       style="overflow:visible"
       id="Arrow2Mstartx-8"
       refX="0"
       refY="0"
       orient="auto"
       inkscape:stockid="Arrow2Mstartx">
      <path
         inkscape:connector-curvature="0"
         transform="scale(0.6,0.6)"
         d="M 8.7185878,4.0337352 -2.2072895,0.01601326 8.7185884,-4.0017078 c -1.7454984,2.3720609 -1.7354408,5.6174519 -6e-7,8.035443 z"
         style="fill:#686868;fill-rule:evenodd;stroke:#686868;stroke-width:0.625;stroke-linejoin:round"
         id="path5956-1" />
    </marker>
    <marker
       inkscape:stockid="Arrow2MendL"
       orient="auto"
       refY="0"
       refX="0"
       id="Arrow2MendL-7"
       style="overflow:visible">
      <path
         inkscape:connector-curvature="0"
         id="path5959-7"
         style="fill:#686868;fill-rule:evenodd;stroke:#686868;stroke-width:0.625;stroke-linejoin:round"
         d="M 8.7185878,4.0337352 -2.2072895,0.01601326 8.7185884,-4.0017078 c -1.7454984,2.3720609 -1.7354408,5.6174519 -6e-7,8.035443 z"
         transform="scale(-0.6,-0.6)" />
    </marker>
    <marker
       inkscape:stockid="Arrow2MendX"
       orient="auto"
       refY="0"
       refX="0"
       id="Arrow2MendX"
       style="overflow:visible">
      <path
         id="path6532"
         style="fill:#686868;fill-rule:evenodd;stroke:#686868;stroke-width:0.625;stroke-linejoin:round"
         d="M 8.7185878,4.0337352 -2.2072895,0.01601326 8.7185884,-4.0017078 c -1.7454984,2.3720609 -1.7354408,5.6174519 -6e-7,8.035443 z"
         transform="scale(-0.6,-0.6)"
         inkscape:connector-curvature="0" />
    </marker>
    <marker
       style="overflow:visible"
       id="Arrow2MstartQ"
       refX="0"
       refY="0"
       orient="auto"
       inkscape:stockid="Arrow2MstartQ">
      <path
         transform="scale(0.6,0.6)"
         d="M 8.7185878,4.0337352 -2.2072895,0.01601326 8.7185884,-4.0017078 c -1.7454984,2.3720609 -1.7354408,5.6174519 -6e-7,8.035443 z"
         style="fill:#686868;fill-rule:evenodd;stroke:#686868;stroke-width:0.625;stroke-linejoin:round"
         id="path6535"
         inkscape:connector-curvature="0" />
    </marker>
  </defs>
  <metadata
     id="metadata7">
    <rdf:RDF>
      <cc:Work
         rdf:about="">
        <dc:format>image/svg+xml</dc:format>
        <dc:type
           rdf:resource="http://purl.org/dc/dcmitype/StillImage" />
      </cc:Work>
    </rdf:RDF>
  </metadata>
  <g
     id="layer1"
     inkscape:groupmode="layer"
     inkscape:label="Calque 1"
     transform="translate(125.8297,256.4771)">
    <path
       sodipodi:nodetypes="csc"
       inkscape:connector-curvature="0"
       id="path3920-43"
       d="m 438.40621,182.62084 c -9.09137,48.48732 -56.56854,125.25891 -141.42135,125.25891 -94.95434,0 -236.375702,2.02031 -236.375702,2.02031"
       style="fill:none;stroke:#0040ff;stroke-width:5;stroke-linecap:butt;stroke-linejoin:miter;stroke-miterlimit:4;stroke-opacity:1;stroke-dasharray:none" />
    <path
       sodipodi:nodetypes="cc"
       inkscape:connector-curvature="0"
       id="path3791-7-1"
       d="m 267.18602,578.77341 17.75844,0"
       style="opacity:0.93999999;color:#000000;fill:#ffffff;fill-opacity:1;fill-rule:nonzero;stroke:#000000;stroke-width:6.25;stroke-linecap:butt;stroke-linejoin:miter;stroke-miterlimit:4;stroke-opacity:1;stroke-dasharray:none;stroke-dashoffset:0;marker:none;visibility:visible;display:inline;overflow:visible;enable-background:accumulate" />
    <path
       inkscape:connector-curvature="0"
       d="m 266.30856,356.77173 c -9.09137,48.48732 -56.56854,125.25891 -141.42135,125.25891 -94.954341,0 -236.3757,2.02031 -236.3757,2.02031 M 266.30856,356.77173 440.05991,183.53057 c -9.09137,48.48732 -56.56854,125.25891 -141.42135,125.25891 -94.95434,0 -236.375701,2.02031 -236.375701,2.02031 L -111.48849,484.05095"
       style="fill:#0042ff;fill-opacity:0.29411765;stroke:none"
       id="path3920-0-1" />
    <rect
       transform="matrix(0.71171451,-0.70246883,0,1,0,0)"
       ry="4.2857141"
       rx="4.2311616"
       y="469.75378"
       x="373.42108"
       height="373.32678"
       width="244.7272"
       id="rect2985-3"
       style="color:#000000;fill:#ffffff;fill-opacity:1;stroke:#000000;stroke-width:7.40844584;stroke-linecap:butt;stroke-linejoin:miter;stroke-miterlimit:4;stroke-opacity:1;stroke-dasharray:none;stroke-dashoffset:0;marker:none;visibility:visible;display:inline;overflow:visible;enable-background:accumulate" />
    <path
       sodipodi:nodetypes="csc"
       inkscape:connector-curvature="0"
       id="path3920-0"
       d="m 264.65486,355.862 c -9.09137,48.48732 -56.56854,125.25891 -141.42135,125.25891 -94.954338,0 -236.3757,2.02031 -236.3757,2.02031"
       style="fill:none;stroke:#0040ff;stroke-width:5;stroke-linecap:butt;stroke-linejoin:miter;stroke-miterlimit:4;stroke-opacity:1;stroke-dasharray:none" />
    <rect
       inkscape:transform-center-y="0.70786342"
       inkscape:transform-center-x="-4.285736"
       transform="matrix(0.70382233,-0.71037605,0,1,0,0)"
       y="483.6326"
       x="612.84662"
       height="13.05302"
       width="17.67137"
       id="rect3864-5"
       style="color:#000000;fill:#ffffff;fill-opacity:1;fill-rule:nonzero;stroke:none;stroke-width:5.29799986;marker:none;visibility:visible;display:inline;overflow:visible;enable-background:accumulate" />
    <path
       inkscape:connector-curvature="0"
       id="path3791-7"
       d="m 438.21733,37.526859 17.75844,0"
       style="opacity:0.93999999;color:#000000;fill:#ffffff;fill-opacity:1;fill-rule:nonzero;stroke:#000000;stroke-width:6.25;stroke-linecap:butt;stroke-linejoin:miter;stroke-miterlimit:4;stroke-opacity:1;stroke-dasharray:none;stroke-dashoffset:0;marker:none;visibility:visible;display:inline;overflow:visible;enable-background:accumulate" />
    <rect
       y="555.80902"
       x="268.7637"
       height="19.824244"
       width="12.437503"
       id="rect3864"
       style="color:#000000;fill:#ffffff;fill-opacity:1;fill-rule:nonzero;stroke:none;stroke-width:5.29799986;marker:none;visibility:visible;display:inline;overflow:visible;enable-background:accumulate" />
    <rect
       transform="matrix(0.71171451,-0.70246883,0,1,0,0)"
       ry="2.9910715"
       rx="6.1255698"
       y="486.98553"
       x="398.31067"
       height="373.57935"
       width="244.72708"
       id="rect2985"
       style="color:#000000;fill:#ffffff;fill-opacity:1;stroke:#000000;stroke-width:7.40844584;stroke-linecap:butt;stroke-linejoin:miter;stroke-miterlimit:4;stroke-opacity:1;stroke-dasharray:none;stroke-dashoffset:0;marker:none;visibility:visible;display:inline;overflow:visible;enable-background:accumulate" />
    <path
       sodipodi:nodetypes="csc"
       inkscape:connector-curvature="0"
       id="path3920-4"
       d="m 458.58895,182.62084 c 9.09137,48.48732 56.56854,125.25891 141.42135,125.25891 94.95434,0 236.3757,2.02031 236.3757,2.02031"
       style="fill:none;stroke:#0040ff;stroke-width:5;stroke-linecap:butt;stroke-linejoin:miter;stroke-miterlimit:4;stroke-opacity:1;stroke-dasharray:none" />
    <path
       inkscape:connector-curvature="0"
       id="path3791"
       d="m 264.73214,207.38004 18.39286,0"
       style="opacity:0.93999999;color:#000000;fill:#ffffff;fill-opacity:1;fill-rule:nonzero;stroke:#000000;stroke-width:6.25;stroke-linecap:butt;stroke-linejoin:miter;stroke-miterlimit:4;stroke-opacity:1;stroke-dasharray:none;stroke-dashoffset:0;marker:none;visibility:visible;display:inline;overflow:visible;enable-background:accumulate" />
    <path
       sodipodi:nodetypes="csc"
       inkscape:connector-curvature="0"
       id="path3920"
       d="m 283.5773,355.86201 c 9.09137,48.48732 56.56854,125.25891 141.42135,125.25891 94.95434,0 236.3757,2.02031 236.3757,2.02031"
       style="fill:none;stroke:#0040ff;stroke-width:5;stroke-linecap:butt;stroke-linejoin:miter;stroke-miterlimit:4;stroke-opacity:1;stroke-dasharray:none" />
    <path
       id="path4041"
       d="m 458.92857,185.57647 0,0 0,0 -175,173.92857"
       style="color:#000000;fill:none;stroke:#0040ff;stroke-width:5;stroke-linecap:butt;stroke-linejoin:miter;stroke-miterlimit:4;stroke-opacity:1;stroke-dasharray:none;stroke-dashoffset:0;marker:none;visibility:visible;display:inline;overflow:visible;enable-background:accumulate"
       inkscape:connector-curvature="0" />
    <path
       id="path3983"
       d="m 283.92857,359.50504 -19.64286,0"
       style="color:#000000;fill:none;stroke:#0040ff;stroke-width:5;stroke-linecap:butt;stroke-linejoin:miter;stroke-miterlimit:4;stroke-opacity:1;stroke-dasharray:none;stroke-dashoffset:0;marker:none;visibility:visible;display:inline;overflow:visible;enable-background:accumulate"
       inkscape:connector-curvature="0" />
    <path
       sodipodi:nodetypes="csccccsc"
       inkscape:connector-curvature="0"
       d="m 837.13189,311.22833 c 0,0 -141.42136,-2.02031 -236.3757,-2.02031 -84.85281,0 -132.32998,-76.77159 -141.25154,-123.7811 l 0.16981,1.47782 0,0 -175.17563,172.10706 c 8.91573,46.6658 56.3929,123.43739 141.24571,123.43739 94.95434,0 236.3757,2.02031 236.3757,2.02031 z"
       style="color:#000000;fill:#0042ff;fill-opacity:0.29411765;stroke:none;stroke-width:5;marker:none;visibility:visible;display:inline;overflow:visible;enable-background:accumulate"
       id="path4041-6" />
    <path
       sodipodi:nodetypes="csccscccc"
       inkscape:connector-curvature="0"
       d="m 660.82973,482.43037 c 0,0 -141.4214,-2.02031 -236.37573,-2.02031 -84.85281,0 -132.32998,-76.77159 -141.24572,-123.43739 l -19.28265,-10e-6 c -8.90679,46.6658 -56.38396,123.43739 -141.23677,123.43739 -94.954342,0 -236.3757,2.02031 -236.3757,2.02031 l -12.14286,100.52206 755.24516,0 z"
       style="color:#000000;fill:#0042ff;fill-opacity:0.29411765;stroke:none;stroke-width:5;marker:none;visibility:visible;display:inline;overflow:visible;enable-background:accumulate"
       id="path3983-1" />
    <path
       sodipodi:nodetypes="cc"
       inkscape:connector-curvature="0"
       id="path4165"
       d="m 370.06726,114.75195 0,-368.10405"
       style="color:#000000;fill:#ffffff;fill-opacity:1;fill-rule:nonzero;stroke:#000000;stroke-width:6.25;stroke-linecap:butt;stroke-linejoin:miter;stroke-miterlimit:4;stroke-opacity:1;stroke-dasharray:none;stroke-dashoffset:0;marker:none;visibility:visible;display:inline;overflow:visible;enable-background:accumulate" />
    <path
       inkscape:connector-curvature="0"
       id="path4184"
       d="m 284.28571,359.50504 50,155.71428"
       style="color:#000000;fill:none;stroke:#0040ff;stroke-width:5;stroke-linecap:butt;stroke-linejoin:miter;stroke-miterlimit:4;stroke-opacity:1;stroke-dasharray:10, 10;stroke-dashoffset:0;marker:none;visibility:visible;display:inline;overflow:visible;enable-background:accumulate" />
    <path
       sodipodi:open="true"
       transform="matrix(2.0714492,0,0,2.0714492,-411.46789,-497.1753)"
       sodipodi:end="1.5642028"
       sodipodi:start="1.2455869"
       d="m 352.3595,464.57289 c -5.36676,1.80956 -10.98799,2.75079 -16.65149,2.78813"
       sodipodi:ry="53.214287"
       sodipodi:rx="53.214287"
       sodipodi:cy="414.14789"
       sodipodi:cx="335.35715"
       id="path4203"
       style="color:#000000;fill:none;stroke:#0040ff;stroke-width:1.89273381;stroke-linecap:butt;stroke-linejoin:miter;stroke-miterlimit:4;stroke-opacity:1;stroke-dasharray:none;stroke-dashoffset:0;marker:none;visibility:visible;display:inline;overflow:visible;enable-background:accumulate"
       sodipodi:type="arc" />
    <g
       style="fill:#df0000;fill-opacity:1"
       id="g4247"
       ns0:preamble="/home/vincent/Documents/Latex/preambule_inkscape.tex"
       ns0:text="$\\boldsymbol{F}$"
       transform="matrix(7.3688207,0,0,7.3688207,-1214.9418,-1024.246)">
      <defs
         id="defs4249">
        <g
           id="g4251">
          <symbol
             id="textext-9cc1d706-0"
             overflow="visible"
             style="overflow:visible">
            <path
               id="path4254"
               d=""
               style="stroke:none"
               inkscape:connector-curvature="0" />
          </symbol>
          <symbol
             id="textext-9cc1d706-1"
             overflow="visible"
             style="overflow:visible">
            <path
               id="path4257"
               d="m 0.90625,0 1.109375,0 c 0.125,0 0.125,-0.046875 0.140625,-0.203125 0.046875,-0.15625 0.078125,-0.3125 0.109375,-0.46875 L 2.625,-2.40625 c 0.046875,-0.140625 0.078125,-0.296875 0.109375,-0.4375 0,-0.0625 0,-0.140625 0.046875,-0.171875 0.046875,-0.046875 0.15625,-0.03125 0.203125,-0.03125 l 2.8125,0 0.171875,-0.796875 -3.03125,0 0.46875,-2.171875 3.4375,0.03125 0.1875,-0.90625 -3.4375,0 C 3.203125,-6.875 2.734375,-6.921875 2.375,-6.875 l -0.03125,0.140625 z m 0,0"
               style="stroke:none"
               inkscape:connector-curvature="0" />
          </symbol>
        </g>
      </defs>
      <g
         style="fill:#df0000;fill-opacity:1"
         id="textext-9cc1d706-2">
        <g
           id="g4260"
           style="fill:#df0000;fill-opacity:1">
          <use
             style="fill:#df0000;fill-opacity:1"
             id="use4262"
             y="134.765"
             x="223.43201"
             xlink:href="#textext-9cc1d706-1"
             width="744.09448"
             height="1052.3622" />
        </g>
      </g>
    </g>
    <path
       sodipodi:nodetypes="cc"
       style="fill:none;stroke:#df0000;stroke-width:7;stroke-linecap:butt;stroke-linejoin:miter;stroke-miterlimit:4;stroke-opacity:1;stroke-dasharray:none;marker-end:url(#Arrow2MendP)"
       d="m 404,-147.63782 0,175.000002"
       id="path4297"
       inkscape:connector-curvature="0" />
    <g
       id="g5310"
       style="fill:#0042ff;fill-opacity:1"
       transform="matrix(7.3688207,0,0,7.3688207,-1357.104,-455.28751)"
       ns0:preamble="/home/vincent/Documents/Latex/preambule_inkscape.tex"
       ns0:text="$\\theta$">
      <defs
         id="defs5312">
        <g
           id="g5314">
          <symbol
             id="textext-1b751182-0"
             overflow="visible"
             style="overflow:visible">
            <path
               id="path5317"
               d=""
               style="stroke:none"
               inkscape:connector-curvature="0" />
          </symbol>
          <symbol
             id="textext-1b751182-1"
             overflow="visible"
             style="overflow:visible">
            <path
               id="path5320"
               d="m 3.078125,-7 c -0.640625,0.078125 -1.125,0.59375 -1.46875,1.09375 -0.578125,0.8125 -0.9375,1.765625 -1.09375,2.75 -0.078125,0.46875 -0.125,1.109375 -0.0625,1.59375 C 0.53125,-0.84375 0.84375,-0.046875 1.5,0.0625 1.578125,0.078125 1.671875,0.078125 1.75,0.078125 2.390625,0.015625 2.875,-0.515625 3.234375,-1 c 0.53125,-0.75 0.84375,-1.59375 1.03125,-2.46875 0.125,-0.625 0.203125,-1.3125 0.109375,-1.9375 C 4.3125,-6.109375 3.953125,-6.890625 3.3125,-6.984375 3.234375,-7 3.15625,-7.015625 3.078125,-7 z m 0.59375,3.296875 -2.40625,0 C 1.453125,-4.46875 1.671875,-5.21875 2.140625,-5.875 2.34375,-6.15625 2.625,-6.453125 3,-6.5 c 0.0625,0 0.125,0 0.1875,0.015625 0.328125,0.046875 0.46875,0.359375 0.546875,0.65625 0.1875,0.65625 0.078125,1.484375 -0.0625,2.125 z m -0.109375,0.5 c -0.03125,0.25 -0.109375,0.515625 -0.1875,0.765625 -0.1875,0.546875 -0.421875,1.109375 -0.796875,1.5625 -0.25,0.28125 -0.65625,0.578125 -1.046875,0.40625 -0.234375,-0.09375 -0.359375,-0.34375 -0.421875,-0.5625 -0.140625,-0.5 -0.125,-1 -0.0625,-1.5 C 1.0625,-2.625 1.125,-3.15625 1.171875,-3.1875 1.21875,-3.234375 1.3125,-3.203125 1.359375,-3.203125 z m 0,0"
               style="stroke:none"
               inkscape:connector-curvature="0" />
          </symbol>
        </g>
      </defs>
      <g
         id="textext-1b751182-2"
         style="fill:#0042ff;fill-opacity:1">
        <g
           id="g5323"
           style="fill:#0042ff;fill-opacity:1">
          <use
             id="use5325"
             y="134.765"
             x="223.43201"
             xlink:href="#textext-1b751182-1"
             width="744.09448"
             height="1052.3622"
             style="fill:#0042ff;fill-opacity:1" />
        </g>
      </g>
    </g>
    <path
       style="fill:none;stroke:#686868;stroke-width:3;stroke-linecap:butt;stroke-linejoin:miter;stroke-miterlimit:4;stroke-opacity:1;stroke-dasharray:none;marker-start:url(#Arrow2Mstartx);marker-end:url(#Arrow2MendL)"
       d="M 287.14286,310.6479 453.78063,150.38792"
       id="path5379"
       inkscape:connector-curvature="0"
       sodipodi:nodetypes="cc" />
    <g
       ns0:text="$w$"
       ns0:preamble="/home/vincent/Documents/Latex/preambule_inkscape.tex"
       transform="matrix(7.3688207,0,0,7.3688207,-1303.4967,-782.49673)"
       style="fill:#df0000;fill-opacity:1"
       id="g5481">
      <defs
         id="defs5483">
        <g
           id="g5485">
          <symbol
             style="overflow:visible"
             overflow="visible"
             id="textext-510d23d9-0">
            <path
               inkscape:connector-curvature="0"
               style="stroke:none"
               d=""
               id="path5488" />
          </symbol>
          <symbol
             style="overflow:visible"
             overflow="visible"
             id="textext-510d23d9-1">
            <path
               inkscape:connector-curvature="0"
               style="stroke:none"
               d="m 1.140625,-4.703125 0.4375,4.734375 c 0.21875,0 0.453125,0.015625 0.640625,-0.015625 C 2.453125,-0.34375 2.625,-0.765625 2.828125,-1.140625 3.3125,-2.125 3.84375,-3.046875 4.265625,-4.0625 l 0.015625,0 0,0.4375 c 0.078125,1.25 0.1875,2.453125 0.296875,3.65625 0.234375,0 0.5,0.015625 0.71875,-0.015625 L 5.375,-0.125 7.75,-4.703125 c -0.21875,0 -0.4375,-0.015625 -0.609375,0.015625 -0.234375,0.359375 -0.40625,0.765625 -0.609375,1.15625 -0.484375,0.953125 -1,1.90625 -1.46875,2.890625 l -0.015625,0 C 4.96875,-2.015625 4.84375,-3.375 4.71875,-4.703125 l -0.40625,0 c -0.15625,0 -0.1875,0.015625 -0.25,0.140625 -0.03125,0.0625 -0.390625,0.765625 -0.53125,1.046875 -0.1875,0.328125 -1.359375,2.609375 -1.421875,2.875 l -0.015625,0 c -0.0625,-1.40625 -0.203125,-2.71875 -0.328125,-4.0625 z m 0.9375,4.0625 c 0,0 0.015625,0 0.015625,0 0,0 -0.015625,0.015625 -0.015625,0 z m 0,0"
               id="path5491" />
          </symbol>
        </g>
      </defs>
      <g
         id="textext-510d23d9-2">
        <g
           style="fill:#000000;fill-opacity:1"
           id="g5494">
          <use
             height="1052.3622"
             width="744.09448"
             xlink:href="#textext-510d23d9-1"
             x="223.43201"
             y="134.765"
             id="use5496" />
        </g>
      </g>
    </g>
    <path
       style="fill:none;stroke:#686868;stroke-width:3;stroke-linecap:butt;stroke-linejoin:miter;stroke-miterlimit:4;stroke-opacity:1;stroke-dasharray:none;marker-start:url(#Arrow2MendX);marker-end:url(#Arrow2MstartQ)"
       d="m 263.66852,274.03965 22.18596,0.50508"
       id="path5379-3"
       inkscape:connector-curvature="0"
       sodipodi:nodetypes="cc" />
    <g
       id="g6794"
       style="fill:#df0000;fill-opacity:1"
       transform="matrix(7.3688207,0,0,7.3688207,-1447.8622,-714.43327)"
       ns0:preamble="/home/vincent/Documents/Latex/preambule_inkscape.tex"
       ns0:text="$d$">
      <defs
         id="defs6796">
        <g
           id="g6798">
          <symbol
             id="textext-809dd713-0"
             overflow="visible"
             style="overflow:visible">
            <path
               id="path6801"
               d=""
               style="stroke:none"
               inkscape:connector-curvature="0" />
          </symbol>
          <symbol
             id="textext-809dd713-1"
             overflow="visible"
             style="overflow:visible">
            <path
               id="path6804"
               d="m 5.171875,-6.921875 -0.59375,2.84375 -0.015625,0 C 4.484375,-4.296875 4.234375,-4.53125 4.03125,-4.625 3.375,-4.96875 2.609375,-4.703125 2.078125,-4.25 1.46875,-3.734375 1.0625,-2.984375 0.9375,-2.1875 0.765625,-1.203125 1.09375,-0.359375 1.71875,-0.046875 2.296875,0.234375 2.984375,0 3.453125,-0.359375 3.59375,-0.46875 3.734375,-0.59375 3.84375,-0.734375 L 3.703125,0 c 0.21875,0 0.4375,0.015625 0.625,-0.015625 L 4.359375,-0.125 c 0.109375,-0.5 0.21875,-0.984375 0.328125,-1.484375 l 1.109375,-5.3125 z M 4.375,-3.875 c 0.03125,0.0625 0.078125,0.140625 0.09375,0.21875 0,0.09375 -0.046875,0.234375 -0.0625,0.328125 C 4.359375,-3.109375 3.984375,-1.375 3.984375,-1.375 3.953125,-1.140625 3.875,-1.0625 3.703125,-0.890625 c -0.25,0.25 -0.5625,0.4375 -0.921875,0.46875 -0.375,0.03125 -0.703125,-0.109375 -0.890625,-0.28125 -0.375,-0.359375 -0.40625,-0.875 -0.328125,-1.34375 0.09375,-0.75 0.390625,-1.515625 1.0625,-1.9375 C 3.09375,-4.3125 4.015625,-4.5 4.375,-3.875 z m -0.53125,3.140625 c 0,0 0.015625,0 0.015625,0 0,0 -0.015625,0.015625 -0.015625,0 z m 0,0"
               style="stroke:none"
               inkscape:connector-curvature="0" />
          </symbol>
        </g>
      </defs>
      <g
         id="textext-809dd713-2">
        <g
           id="g6807"
           style="fill:#000000;fill-opacity:1">
          <use
             id="use6809"
             y="134.765"
             x="223.43201"
             xlink:href="#textext-809dd713-1"
             width="744.09448"
             height="1052.3622" />
        </g>
      </g>
    </g>
    <g
       ns0:text="air"
       ns0:preamble="/home/vincent/Documents/Latex/preambule_inkscape.tex"
       transform="matrix(7.3688207,0,0,7.3688207,-1771.0805,-608.44472)"
       style="fill:#df0000;fill-opacity:1"
       id="g7034">
      <defs
         id="defs7036">
        <g
           id="g7038">
          <symbol
             overflow="visible"
             id="textext-865454b7-0"
             style="overflow:visible">
            <path
               style="stroke:none"
               d=""
               id="path7041"
               inkscape:connector-curvature="0" />
          </symbol>
          <symbol
             overflow="visible"
             id="textext-865454b7-1"
             style="overflow:visible">
            <path
               style="stroke:none"
               d="m 0.875,-3.859375 c 0.171875,-0.078125 0.328125,-0.203125 0.5,-0.28125 0.3125,-0.140625 0.65625,-0.21875 0.984375,-0.21875 l 0.140625,0 c 0.453125,0 0.78125,0.359375 0.90625,0.796875 0.046875,0.140625 0.046875,0.296875 0.046875,0.46875 l 0,0.4375 c -1.046875,0 -2.90625,0.21875 -2.90625,1.546875 0,0.59375 0.4375,1.171875 1.109375,1.171875 0.640625,0 1.375,-0.21875 1.796875,-0.765625 l 0,0.6875 0.640625,0 0,-2.625 c 0,-0.15625 0,-0.3125 0,-0.46875 0,-0.75 -0.4375,-1.65625 -1.5,-1.71875 l -0.109375,0 c -0.53125,0 -1.015625,0.09375 -1.484375,0.3125 -0.0625,0.046875 -0.1875,0.0625 -0.1875,0.171875 0,0.15625 0.046875,0.328125 0.0625,0.484375 z m 2.578125,1.5 0,0.75 c 0,0.375 -0.046875,0.71875 -0.46875,0.96875 C 2.765625,-0.5 2.5,-0.421875 2.21875,-0.421875 c -0.4375,0 -1.0625,-0.203125 -1.0625,-0.75 0,-0.9375 1.484375,-1.1875 2.296875,-1.1875 z m 0,0"
               id="path7044"
               inkscape:connector-curvature="0" />
          </symbol>
          <symbol
             overflow="visible"
             id="textext-865454b7-2"
             style="overflow:visible">
            <path
               style="stroke:none"
               d="m 0.796875,-4.71875 0,4.703125 0.625,0 0,-4.703125 z m 0,-2.203125 0,0.625 0.625,0 0,-0.625 z m 0,0"
               id="path7047"
               inkscape:connector-curvature="0" />
          </symbol>
          <symbol
             overflow="visible"
             id="textext-865454b7-3"
             style="overflow:visible">
            <path
               style="stroke:none"
               d="m 1.421875,-3.46875 0,-1.25 -0.609375,0 0,4.703125 0.625,0 0,-2.484375 c 0,-0.9375 0.8125,-1.734375 1.859375,-1.734375 l 0,-0.5625 C 2.65625,-4.796875 2.0625,-4.46875 1.6875,-3.953125 1.578125,-3.8125 1.46875,-3.65625 1.421875,-3.46875 z m 0,0"
               id="path7050"
               inkscape:connector-curvature="0" />
          </symbol>
        </g>
      </defs>
      <g
         id="textext-865454b7-4">
        <g
           style="fill:#000000;fill-opacity:1"
           id="g7053">
          <use
             xlink:href="#textext-865454b7-1"
             x="223.43201"
             y="134.765"
             id="use7055"
             width="744.09448"
             height="1052.3622" />
          <use
             xlink:href="#textext-865454b7-2"
             x="228.33061"
             y="134.765"
             id="use7057"
             width="744.09448"
             height="1052.3622" />
          <use
             xlink:href="#textext-865454b7-3"
             x="230.57219"
             y="134.765"
             id="use7059"
             width="744.09448"
             height="1052.3622" />
        </g>
      </g>
    </g>
    <g
       id="g7334"
       style="fill:#df0000;fill-opacity:1"
       transform="matrix(7.3688207,0,0,7.3688207,-1747.5089,-445.75427)"
       ns0:preamble="/home/vincent/Documents/Latex/preambule_inkscape.tex"
       ns0:text="liquid">
      <defs
         id="defs7336">
        <g
           id="g7338">
          <symbol
             id="textext-fb2001de-0"
             overflow="visible"
             style="overflow:visible">
            <path
               id="path7341"
               d=""
               style="stroke:none"
               inkscape:connector-curvature="0" />
          </symbol>
          <symbol
             id="textext-fb2001de-1"
             overflow="visible"
             style="overflow:visible">
            <path
               id="path7344"
               d="m 0.796875,-6.921875 0,6.90625 0.625,0 0,-6.90625 z m 0,0"
               style="stroke:none"
               inkscape:connector-curvature="0" />
          </symbol>
          <symbol
             id="textext-fb2001de-2"
             overflow="visible"
             style="overflow:visible">
            <path
               id="path7347"
               d="m 0.796875,-4.71875 0,4.703125 0.625,0 0,-4.703125 z m 0,-2.203125 0,0.625 0.625,0 0,-0.625 z m 0,0"
               style="stroke:none"
               inkscape:connector-curvature="0" />
          </symbol>
          <symbol
             id="textext-fb2001de-3"
             overflow="visible"
             style="overflow:visible">
            <path
               id="path7350"
               d="m 3.6875,-0.78125 0,2.4375 0.65625,0 0,-6.453125 -0.640625,0 0,0.875 c -0.28125,-0.4375 -0.59375,-0.875 -1.28125,-0.875 -1.21875,0 -1.953125,1.3125 -1.953125,2.4375 0,1.0625 0.609375,2.375 1.765625,2.421875 l 0.09375,0 c 0.546875,0 1.15625,-0.375 1.359375,-0.84375 z m -2.578125,-1.4375 c 0,-0.046875 -0.015625,-0.109375 -0.015625,-0.15625 0,-0.890625 0.640625,-1.90625 1.609375,-1.90625 0.421875,0 0.90625,0.34375 1,0.984375 l 0,1.625 c 0,0.0625 0.015625,0.140625 0.015625,0.203125 0,0.484375 -0.53125,0.921875 -0.796875,0.984375 -0.09375,0.03125 -0.203125,0.0625 -0.3125,0.0625 -0.921875,0 -1.40625,-0.953125 -1.5,-1.796875 z m 0,0"
               style="stroke:none"
               inkscape:connector-curvature="0" />
          </symbol>
          <symbol
             id="textext-fb2001de-4"
             overflow="visible"
             style="overflow:visible">
            <path
               id="path7353"
               d="m 0.8125,-4.71875 0,3.390625 c 0,0.296875 0,0.59375 0.140625,0.859375 C 1.125,-0.078125 1.53125,0.0625 1.9375,0.0625 c 0.671875,0 1.46875,-0.3125 1.765625,-0.9375 l 0,0.859375 0.640625,0 0,-4.703125 -0.640625,0 0,2.40625 c 0,0.15625 0,0.296875 0,0.453125 0,0.390625 -0.078125,0.78125 -0.359375,1.078125 -0.265625,0.265625 -0.625,0.375 -1,0.375 -0.515625,0 -0.90625,-0.046875 -0.90625,-0.9375 0,-0.15625 0.015625,-0.296875 0.015625,-0.453125 l 0,-2.921875 z m 0,0"
               style="stroke:none"
               inkscape:connector-curvature="0" />
          </symbol>
          <symbol
             id="textext-fb2001de-5"
             overflow="visible"
             style="overflow:visible">
            <path
               id="path7356"
               d="m 3.703125,-6.921875 0,2.828125 C 3.4375,-4.515625 2.859375,-4.796875 2.359375,-4.796875 c -1.203125,0 -1.890625,1.296875 -1.890625,2.4375 0,1.015625 0.5625,2.421875 1.796875,2.421875 0.546875,0 1.1875,-0.328125 1.421875,-0.8125 l 0.015625,0.734375 0.640625,0 0,-6.90625 z m -2.59375,4.765625 0,-0.125 c 0,-0.828125 0.28125,-2.015625 1.578125,-2.015625 0.421875,0 1.015625,0.3125 1.015625,0.875 0,0.125 0,0.25 0,0.375 l 0,1.71875 c 0,0.53125 -0.703125,0.90625 -1.109375,0.90625 -0.765625,0 -1.296875,-0.59375 -1.4375,-1.328125 C 1.140625,-1.890625 1.125,-2.03125 1.109375,-2.15625 z m 0,0"
               style="stroke:none"
               inkscape:connector-curvature="0" />
          </symbol>
        </g>
      </defs>
      <g
         id="textext-fb2001de-6">
        <g
           id="g7359"
           style="fill:#000000;fill-opacity:1">
          <use
             id="use7361"
             y="134.765"
             x="223.43201"
             xlink:href="#textext-fb2001de-1"
             width="744.09448"
             height="1052.3622" />
          <use
             id="use7363"
             y="134.765"
             x="225.67358"
             xlink:href="#textext-fb2001de-2"
             width="744.09448"
             height="1052.3622" />
          <use
             id="use7365"
             y="134.765"
             x="227.91518"
             xlink:href="#textext-fb2001de-3"
             width="744.09448"
             height="1052.3622" />
          <use
             id="use7367"
             y="134.765"
             x="233.06285"
             xlink:href="#textext-fb2001de-4"
             width="744.09448"
             height="1052.3622" />
          <use
             id="use7369"
             y="134.765"
             x="238.21053"
             xlink:href="#textext-fb2001de-2"
             width="744.09448"
             height="1052.3622" />
          <use
             id="use7371"
             y="134.765"
             x="240.4521"
             xlink:href="#textext-fb2001de-5"
             width="744.09448"
             height="1052.3622" />
        </g>
      </g>
    </g>
  </g>
</svg>
